<svg width="32" height="32" viewBox="0 0 32 32" fill="none" xmlns="http://www.w3.org/2000/svg">
  <defs>
    <linearGradient id="bg" x1="0" y1="0" x2="32" y2="32" gradientUnits="userSpaceOnUse">
      <stop offset="0%" stop-color="#0d1f10"/>
      <stop offset="100%" stop-color="#06101a"/>
    </linearGradient>
    <linearGradient id="mesh" x1="5" y1="5" x2="27" y2="27" gradientUnits="userSpaceOnUse">
      <stop offset="0%" stop-color="#22c55e"/>
      <stop offset="100%" stop-color="#06b6d4"/>
    </linearGradient>
    <linearGradient id="line" x1="5" y1="5" x2="27" y2="27" gradientUnits="userSpaceOnUse">
      <stop offset="0%" stop-color="#22c55e" stop-opacity="0.75"/>
      <stop offset="100%" stop-color="#06b6d4" stop-opacity="0.75"/>
    </linearGradient>
    <filter id="g" x="-60%" y="-60%" width="220%" height="220%">
      <feGaussianBlur stdDeviation="1.5" result="b"/>
      <feMerge><feMergeNode in="b"/><feMergeNode in="SourceGraphic"/></feMerge>
    </filter>
  </defs>

  <rect width="32" height="32" rx="7" fill="url(#bg)"/>
  <rect width="32" height="32" rx="7" fill="none" stroke="url(#mesh)" stroke-opacity="0.15" stroke-width="0.75"/>

  <!-- Ghost grid nodes -->
  <circle cx="16" cy="5"  r="1.5" fill="white" fill-opacity="0.08"/>
  <circle cx="5"  cy="16" r="1.5" fill="white" fill-opacity="0.08"/>
  <circle cx="27" cy="16" r="1.5" fill="white" fill-opacity="0.08"/>
  <circle cx="16" cy="27" r="1.5" fill="white" fill-opacity="0.08"/>

  <!-- M strokes -->
  <line x1="5" y1="27" x2="5"  y2="5"  stroke="url(#line)" stroke-width="2" stroke-linecap="round"/>
  <line x1="5" y1="5"  x2="16" y2="16" stroke="url(#line)" stroke-width="2" stroke-linecap="round"/>
  <line x1="16" y1="16" x2="27" y2="5" stroke="url(#line)" stroke-width="2" stroke-linecap="round"/>
  <line x1="27" y1="5"  x2="27" y2="27" stroke="url(#line)" stroke-width="2" stroke-linecap="round"/>

  <!-- Active M nodes -->
  <circle cx="5"  cy="27" r="3" fill="url(#mesh)" filter="url(#g)"/>
  <circle cx="5"  cy="5"  r="3" fill="url(#mesh)" filter="url(#g)"/>
  <circle cx="16" cy="16" r="3.5" fill="url(#mesh)" filter="url(#g)"/>
  <circle cx="27" cy="5"  r="3" fill="url(#mesh)" filter="url(#g)"/>
  <circle cx="27" cy="27" r="3" fill="url(#mesh)" filter="url(#g)"/>
</svg>
